<mxfile host="Electron" modified="2024-06-22T07:05:37.593Z" agent="Mozilla/5.0 (Windows NT 10.0; Win64; x64) AppleWebKit/537.36 (KHTML, like Gecko) draw.io/24.1.0 Chrome/120.0.6099.109 Electron/28.1.0 Safari/537.36" etag="ynMwvi-u25m0iK2NHPVh" version="24.1.0" type="device">
  <diagram name="Страница — 1" id="Y_aUjy0jsnOKNnd5ISbO">
    <mxGraphModel dx="2421" dy="1006" grid="1" gridSize="10" guides="1" tooltips="1" connect="1" arrows="1" fold="1" page="1" pageScale="1" pageWidth="827" pageHeight="1169" math="0" shadow="0">
      <root>
        <mxCell id="0" />
        <mxCell id="1" parent="0" />
        <mxCell id="KGEiVrV45FmL-jeKOXsn-12" style="edgeStyle=orthogonalEdgeStyle;rounded=0;orthogonalLoop=1;jettySize=auto;html=1;exitX=1;exitY=0.3333333333333333;exitDx=0;exitDy=0;exitPerimeter=0;entryX=0;entryY=0.5;entryDx=0;entryDy=0;" parent="1" source="KGEiVrV45FmL-jeKOXsn-1" target="KGEiVrV45FmL-jeKOXsn-5" edge="1">
          <mxGeometry relative="1" as="geometry" />
        </mxCell>
        <mxCell id="KGEiVrV45FmL-jeKOXsn-29" style="edgeStyle=orthogonalEdgeStyle;rounded=0;orthogonalLoop=1;jettySize=auto;html=1;exitX=1;exitY=1;exitDx=0;exitDy=0;exitPerimeter=0;entryX=0.5;entryY=0;entryDx=0;entryDy=0;" parent="1" source="KGEiVrV45FmL-jeKOXsn-1" target="KGEiVrV45FmL-jeKOXsn-28" edge="1">
          <mxGeometry relative="1" as="geometry">
            <Array as="points">
              <mxPoint x="6500" y="1880" />
              <mxPoint x="6500" y="2040" />
              <mxPoint x="6660" y="2040" />
            </Array>
          </mxGeometry>
        </mxCell>
        <mxCell id="KGEiVrV45FmL-jeKOXsn-1" value="Клиент" style="shape=umlActor;verticalLabelPosition=bottom;verticalAlign=top;html=1;" parent="1" vertex="1">
          <mxGeometry x="6460" y="1820" width="30" height="60" as="geometry" />
        </mxCell>
        <mxCell id="KGEiVrV45FmL-jeKOXsn-4" value="Работник" style="shape=umlActor;verticalLabelPosition=bottom;verticalAlign=top;html=1;" parent="1" vertex="1">
          <mxGeometry x="6910" y="1970" width="30" height="60" as="geometry" />
        </mxCell>
        <mxCell id="KGEiVrV45FmL-jeKOXsn-13" style="edgeStyle=orthogonalEdgeStyle;rounded=0;orthogonalLoop=1;jettySize=auto;html=1;exitX=1;exitY=0.5;exitDx=0;exitDy=0;entryX=0;entryY=0.5;entryDx=0;entryDy=0;dashed=1;" parent="1" source="KGEiVrV45FmL-jeKOXsn-5" target="KGEiVrV45FmL-jeKOXsn-8" edge="1">
          <mxGeometry relative="1" as="geometry">
            <Array as="points">
              <mxPoint x="6700" y="1860" />
              <mxPoint x="6700" y="1860" />
            </Array>
          </mxGeometry>
        </mxCell>
        <mxCell id="KGEiVrV45FmL-jeKOXsn-5" value="Сдача ТС в автосервис" style="ellipse;whiteSpace=wrap;html=1;" parent="1" vertex="1">
          <mxGeometry x="6550" y="1820" width="120" height="80" as="geometry" />
        </mxCell>
        <mxCell id="KGEiVrV45FmL-jeKOXsn-6" value="Приемка ТС" style="ellipse;whiteSpace=wrap;html=1;" parent="1" vertex="1">
          <mxGeometry x="6730" y="1710" width="120" height="80" as="geometry" />
        </mxCell>
        <mxCell id="KGEiVrV45FmL-jeKOXsn-7" value="Общая диагностика ТС" style="ellipse;whiteSpace=wrap;html=1;" parent="1" vertex="1">
          <mxGeometry x="6600" y="1710" width="120" height="80" as="geometry" />
        </mxCell>
        <mxCell id="KGEiVrV45FmL-jeKOXsn-14" style="edgeStyle=orthogonalEdgeStyle;rounded=0;orthogonalLoop=1;jettySize=auto;html=1;exitX=0.5;exitY=0;exitDx=0;exitDy=0;entryX=0.5;entryY=1;entryDx=0;entryDy=0;dashed=1;" parent="1" source="KGEiVrV45FmL-jeKOXsn-8" target="KGEiVrV45FmL-jeKOXsn-6" edge="1">
          <mxGeometry relative="1" as="geometry" />
        </mxCell>
        <mxCell id="KGEiVrV45FmL-jeKOXsn-15" value="include" style="edgeLabel;html=1;align=center;verticalAlign=middle;resizable=0;points=[];" parent="KGEiVrV45FmL-jeKOXsn-14" vertex="1" connectable="0">
          <mxGeometry x="0.11" y="-1" relative="1" as="geometry">
            <mxPoint x="19" as="offset" />
          </mxGeometry>
        </mxCell>
        <mxCell id="KGEiVrV45FmL-jeKOXsn-33" style="edgeStyle=orthogonalEdgeStyle;rounded=0;orthogonalLoop=1;jettySize=auto;html=1;exitX=1;exitY=0.5;exitDx=0;exitDy=0;entryX=0;entryY=0.5;entryDx=0;entryDy=0;dashed=1;" parent="1" source="KGEiVrV45FmL-jeKOXsn-8" target="KGEiVrV45FmL-jeKOXsn-20" edge="1">
          <mxGeometry relative="1" as="geometry" />
        </mxCell>
        <mxCell id="KGEiVrV45FmL-jeKOXsn-8" value="Принятие заказа и занесение в БД" style="ellipse;whiteSpace=wrap;html=1;" parent="1" vertex="1">
          <mxGeometry x="6730" y="1820" width="120" height="80" as="geometry" />
        </mxCell>
        <mxCell id="KGEiVrV45FmL-jeKOXsn-9" value="Заказ деталей для ТС" style="ellipse;whiteSpace=wrap;html=1;" parent="1" vertex="1">
          <mxGeometry x="6864" y="1710" width="120" height="80" as="geometry" />
        </mxCell>
        <mxCell id="KGEiVrV45FmL-jeKOXsn-18" value="" style="endArrow=none;dashed=1;html=1;rounded=0;entryX=0;entryY=0.5;entryDx=0;entryDy=0;exitX=1;exitY=0;exitDx=0;exitDy=0;startArrow=classic;startFill=1;" parent="1" source="KGEiVrV45FmL-jeKOXsn-9" target="KGEiVrV45FmL-jeKOXsn-30" edge="1">
          <mxGeometry width="50" height="50" relative="1" as="geometry">
            <mxPoint x="6974" y="1800" as="sourcePoint" />
            <mxPoint x="7001.573593128807" y="1701.2842712474617" as="targetPoint" />
          </mxGeometry>
        </mxCell>
        <mxCell id="KGEiVrV45FmL-jeKOXsn-19" value="extend" style="text;html=1;align=center;verticalAlign=middle;resizable=0;points=[];autosize=1;strokeColor=none;fillColor=none;" parent="1" vertex="1">
          <mxGeometry x="6938" y="1685" width="60" height="30" as="geometry" />
        </mxCell>
        <mxCell id="KGEiVrV45FmL-jeKOXsn-20" value="Проведение работ по ремонту ТС" style="ellipse;whiteSpace=wrap;html=1;" parent="1" vertex="1">
          <mxGeometry x="6910" y="1820" width="120" height="80" as="geometry" />
        </mxCell>
        <mxCell id="KGEiVrV45FmL-jeKOXsn-28" value="Принятие отремонтированного ТС&amp;nbsp;" style="ellipse;whiteSpace=wrap;html=1;" parent="1" vertex="1">
          <mxGeometry x="6600" y="2070" width="120" height="80" as="geometry" />
        </mxCell>
        <mxCell id="KGEiVrV45FmL-jeKOXsn-30" value="Проверка наличия деталей&amp;nbsp;" style="ellipse;whiteSpace=wrap;html=1;" parent="1" vertex="1">
          <mxGeometry x="7014" y="1650" width="115" height="80" as="geometry" />
        </mxCell>
        <mxCell id="KGEiVrV45FmL-jeKOXsn-31" value="В случае отстутствия деталей" style="shape=note2;boundedLbl=1;whiteSpace=wrap;html=1;size=25;verticalAlign=top;align=center;" parent="1" vertex="1">
          <mxGeometry x="7054" y="1750" width="120" height="60" as="geometry" />
        </mxCell>
        <mxCell id="KGEiVrV45FmL-jeKOXsn-32" value="" style="endArrow=none;dashed=1;html=1;rounded=0;exitX=1;exitY=0.587;exitDx=0;exitDy=0;exitPerimeter=0;entryX=0;entryY=0.5;entryDx=0;entryDy=0;entryPerimeter=0;" parent="1" source="KGEiVrV45FmL-jeKOXsn-19" target="KGEiVrV45FmL-jeKOXsn-31" edge="1">
          <mxGeometry width="50" height="50" relative="1" as="geometry">
            <mxPoint x="7024" y="1810" as="sourcePoint" />
            <mxPoint x="7074" y="1760" as="targetPoint" />
          </mxGeometry>
        </mxCell>
        <mxCell id="KGEiVrV45FmL-jeKOXsn-34" value="Сдача ТС клиенту" style="ellipse;whiteSpace=wrap;html=1;" parent="1" vertex="1">
          <mxGeometry x="7010" y="2040" width="120" height="80" as="geometry" />
        </mxCell>
        <mxCell id="KGEiVrV45FmL-jeKOXsn-36" value="" style="endArrow=none;dashed=1;html=1;rounded=0;entryX=1;entryY=1;entryDx=0;entryDy=0;exitX=0.5;exitY=0;exitDx=0;exitDy=0;startArrow=classic;startFill=1;" parent="1" source="KGEiVrV45FmL-jeKOXsn-34" target="KGEiVrV45FmL-jeKOXsn-20" edge="1">
          <mxGeometry width="50" height="50" relative="1" as="geometry">
            <mxPoint x="6930" y="2030" as="sourcePoint" />
            <mxPoint x="6980" y="1980" as="targetPoint" />
          </mxGeometry>
        </mxCell>
        <mxCell id="KGEiVrV45FmL-jeKOXsn-38" value="" style="endArrow=none;dashed=1;html=1;rounded=0;entryX=0;entryY=0.5;entryDx=0;entryDy=0;exitX=1;exitY=0.5;exitDx=0;exitDy=0;startArrow=classic;startFill=1;" parent="1" source="KGEiVrV45FmL-jeKOXsn-28" target="KGEiVrV45FmL-jeKOXsn-34" edge="1">
          <mxGeometry width="50" height="50" relative="1" as="geometry">
            <mxPoint x="6770" y="2140" as="sourcePoint" />
            <mxPoint x="6820" y="2090" as="targetPoint" />
          </mxGeometry>
        </mxCell>
        <mxCell id="KGEiVrV45FmL-jeKOXsn-41" value="" style="endArrow=classic;dashed=1;html=1;rounded=0;exitX=1;exitY=0;exitDx=0;exitDy=0;entryX=0.129;entryY=0.874;entryDx=0;entryDy=0;entryPerimeter=0;startArrow=none;startFill=0;endFill=1;" parent="1" source="KGEiVrV45FmL-jeKOXsn-8" target="KGEiVrV45FmL-jeKOXsn-9" edge="1">
          <mxGeometry width="50" height="50" relative="1" as="geometry">
            <mxPoint x="6840" y="1810" as="sourcePoint" />
            <mxPoint x="6890" y="1760" as="targetPoint" />
          </mxGeometry>
        </mxCell>
        <mxCell id="KGEiVrV45FmL-jeKOXsn-42" value="" style="endArrow=classic;dashed=1;html=1;rounded=0;exitX=0;exitY=0;exitDx=0;exitDy=0;entryX=1;entryY=1;entryDx=0;entryDy=0;startArrow=none;startFill=0;endFill=1;" parent="1" source="KGEiVrV45FmL-jeKOXsn-8" target="KGEiVrV45FmL-jeKOXsn-7" edge="1">
          <mxGeometry width="50" height="50" relative="1" as="geometry">
            <mxPoint x="6670" y="1842" as="sourcePoint" />
            <mxPoint x="6717" y="1790" as="targetPoint" />
          </mxGeometry>
        </mxCell>
        <mxCell id="KGEiVrV45FmL-jeKOXsn-43" value="include" style="edgeLabel;html=1;align=center;verticalAlign=middle;resizable=0;points=[];" parent="1" vertex="1" connectable="0">
          <mxGeometry x="6870" y="1819.9982608695652" as="geometry" />
        </mxCell>
        <mxCell id="KGEiVrV45FmL-jeKOXsn-44" value="include" style="edgeLabel;html=1;align=center;verticalAlign=middle;resizable=0;points=[];" parent="1" vertex="1" connectable="0">
          <mxGeometry x="6750" y="1809.9982608695652" as="geometry" />
        </mxCell>
        <mxCell id="KGEiVrV45FmL-jeKOXsn-46" value="include" style="edgeLabel;html=1;align=center;verticalAlign=middle;resizable=0;points=[];" parent="1" vertex="1" connectable="0">
          <mxGeometry x="6690" y="1849.9982608695652" as="geometry" />
        </mxCell>
        <mxCell id="KGEiVrV45FmL-jeKOXsn-47" value="include" style="edgeLabel;html=1;align=center;verticalAlign=middle;resizable=0;points=[];rotation=0;" parent="1" vertex="1" connectable="0">
          <mxGeometry x="6864" y="2079.9982608695655" as="geometry" />
        </mxCell>
        <mxCell id="KGEiVrV45FmL-jeKOXsn-48" value="include" style="edgeLabel;html=1;align=center;verticalAlign=middle;resizable=0;points=[];" parent="1" vertex="1" connectable="0">
          <mxGeometry x="7054" y="1929.9982608695652" as="geometry" />
        </mxCell>
        <mxCell id="KGEiVrV45FmL-jeKOXsn-49" value="include" style="edgeLabel;html=1;align=center;verticalAlign=middle;resizable=0;points=[];" parent="1" vertex="1" connectable="0">
          <mxGeometry x="6870" y="1869.9982608695652" as="geometry" />
        </mxCell>
        <mxCell id="KGEiVrV45FmL-jeKOXsn-50" value="" style="endArrow=none;html=1;rounded=0;entryX=0.5;entryY=1;entryDx=0;entryDy=0;" parent="1" target="KGEiVrV45FmL-jeKOXsn-20" edge="1">
          <mxGeometry width="50" height="50" relative="1" as="geometry">
            <mxPoint x="6940" y="1990" as="sourcePoint" />
            <mxPoint x="6990" y="1940" as="targetPoint" />
          </mxGeometry>
        </mxCell>
        <mxCell id="KGEiVrV45FmL-jeKOXsn-51" value="" style="endArrow=none;html=1;rounded=0;entryX=0;entryY=0;entryDx=0;entryDy=0;exitX=1;exitY=0.3333333333333333;exitDx=0;exitDy=0;exitPerimeter=0;" parent="1" source="KGEiVrV45FmL-jeKOXsn-4" target="KGEiVrV45FmL-jeKOXsn-34" edge="1">
          <mxGeometry width="50" height="50" relative="1" as="geometry">
            <mxPoint x="6950" y="2000" as="sourcePoint" />
            <mxPoint x="6980" y="1910" as="targetPoint" />
          </mxGeometry>
        </mxCell>
        <mxCell id="KGEiVrV45FmL-jeKOXsn-52" value="Вненсение клиента с клиентскую базу" style="ellipse;whiteSpace=wrap;html=1;" parent="1" vertex="1">
          <mxGeometry x="6560" y="1910" width="120" height="80" as="geometry" />
        </mxCell>
        <mxCell id="KGEiVrV45FmL-jeKOXsn-53" value="" style="endArrow=classic;dashed=1;html=1;rounded=0;exitX=1;exitY=0;exitDx=0;exitDy=0;entryX=0;entryY=1;entryDx=0;entryDy=0;endFill=1;" parent="1" source="KGEiVrV45FmL-jeKOXsn-52" target="KGEiVrV45FmL-jeKOXsn-8" edge="1">
          <mxGeometry width="50" height="50" relative="1" as="geometry">
            <mxPoint x="6670" y="1940" as="sourcePoint" />
            <mxPoint x="6720" y="1890" as="targetPoint" />
          </mxGeometry>
        </mxCell>
        <mxCell id="KGEiVrV45FmL-jeKOXsn-54" value="Если клиента нет в списке клиентов" style="shape=note2;boundedLbl=1;whiteSpace=wrap;html=1;size=25;verticalAlign=top;align=center;" parent="1" vertex="1">
          <mxGeometry x="6730" y="1930" width="120" height="60" as="geometry" />
        </mxCell>
        <mxCell id="KGEiVrV45FmL-jeKOXsn-55" value="" style="endArrow=none;html=1;rounded=0;entryX=0;entryY=0.3333333333333333;entryDx=0;entryDy=0;entryPerimeter=0;exitX=1;exitY=1;exitDx=0;exitDy=0;startArrow=classic;startFill=1;" parent="1" source="KGEiVrV45FmL-jeKOXsn-8" target="KGEiVrV45FmL-jeKOXsn-4" edge="1">
          <mxGeometry width="50" height="50" relative="1" as="geometry">
            <mxPoint x="6840" y="2010" as="sourcePoint" />
            <mxPoint x="6890" y="1960" as="targetPoint" />
          </mxGeometry>
        </mxCell>
        <mxCell id="KGEiVrV45FmL-jeKOXsn-56" value="" style="endArrow=none;dashed=1;html=1;rounded=0;exitX=0;exitY=0.5;exitDx=0;exitDy=0;exitPerimeter=0;" parent="1" source="KGEiVrV45FmL-jeKOXsn-54" edge="1">
          <mxGeometry width="50" height="50" relative="1" as="geometry">
            <mxPoint x="6720" y="1960" as="sourcePoint" />
            <mxPoint x="6700" y="1910" as="targetPoint" />
          </mxGeometry>
        </mxCell>
        <mxCell id="KGEiVrV45FmL-jeKOXsn-57" value="extend" style="text;html=1;align=center;verticalAlign=middle;resizable=0;points=[];autosize=1;strokeColor=none;fillColor=none;rotation=-15;" parent="1" vertex="1">
          <mxGeometry x="6660" y="1888" width="60" height="30" as="geometry" />
        </mxCell>
        <mxCell id="hYg4Aowo7lxBclZWRyUc-62" style="edgeStyle=orthogonalEdgeStyle;rounded=0;orthogonalLoop=1;jettySize=auto;html=1;exitX=1;exitY=1;exitDx=0;exitDy=0;exitPerimeter=0;entryX=0.5;entryY=0;entryDx=0;entryDy=0;" edge="1" parent="1" source="hYg4Aowo7lxBclZWRyUc-1" target="hYg4Aowo7lxBclZWRyUc-50">
          <mxGeometry relative="1" as="geometry">
            <Array as="points">
              <mxPoint x="90" y="870" />
            </Array>
          </mxGeometry>
        </mxCell>
        <mxCell id="hYg4Aowo7lxBclZWRyUc-1" value="Клиент" style="shape=umlActor;verticalLabelPosition=bottom;verticalAlign=top;html=1;" vertex="1" parent="1">
          <mxGeometry x="10" y="810" width="30" height="60" as="geometry" />
        </mxCell>
        <mxCell id="hYg4Aowo7lxBclZWRyUc-2" value="Сотрудник" style="shape=umlActor;verticalLabelPosition=bottom;verticalAlign=top;html=1;" vertex="1" parent="1">
          <mxGeometry x="310" y="970" width="30" height="60" as="geometry" />
        </mxCell>
        <mxCell id="hYg4Aowo7lxBclZWRyUc-4" value="" style="endArrow=classic;html=1;rounded=0;exitX=1;exitY=0.3333333333333333;exitDx=0;exitDy=0;exitPerimeter=0;entryX=0;entryY=0.5;entryDx=0;entryDy=0;" edge="1" parent="1" source="hYg4Aowo7lxBclZWRyUc-1" target="hYg4Aowo7lxBclZWRyUc-5">
          <mxGeometry width="50" height="50" relative="1" as="geometry">
            <mxPoint x="390" y="860" as="sourcePoint" />
            <mxPoint x="130" y="830" as="targetPoint" />
          </mxGeometry>
        </mxCell>
        <mxCell id="hYg4Aowo7lxBclZWRyUc-10" style="edgeStyle=orthogonalEdgeStyle;rounded=0;orthogonalLoop=1;jettySize=auto;html=1;exitX=0.5;exitY=0;exitDx=0;exitDy=0;entryX=0.5;entryY=1;entryDx=0;entryDy=0;dashed=1;" edge="1" parent="1" source="hYg4Aowo7lxBclZWRyUc-5" target="hYg4Aowo7lxBclZWRyUc-8">
          <mxGeometry relative="1" as="geometry" />
        </mxCell>
        <mxCell id="hYg4Aowo7lxBclZWRyUc-12" style="edgeStyle=orthogonalEdgeStyle;rounded=0;orthogonalLoop=1;jettySize=auto;html=1;exitX=0.5;exitY=0;exitDx=0;exitDy=0;entryX=0.5;entryY=1;entryDx=0;entryDy=0;dashed=1;" edge="1" parent="1" source="hYg4Aowo7lxBclZWRyUc-5" target="hYg4Aowo7lxBclZWRyUc-9">
          <mxGeometry relative="1" as="geometry">
            <Array as="points">
              <mxPoint x="300" y="790" />
            </Array>
          </mxGeometry>
        </mxCell>
        <mxCell id="hYg4Aowo7lxBclZWRyUc-5" value="Консультация и определение потребностей клиента" style="ellipse;whiteSpace=wrap;html=1;" vertex="1" parent="1">
          <mxGeometry x="380" y="790" width="120" height="80" as="geometry" />
        </mxCell>
        <mxCell id="hYg4Aowo7lxBclZWRyUc-8" value="Анализ и оценка предпочтений" style="ellipse;whiteSpace=wrap;html=1;" vertex="1" parent="1">
          <mxGeometry x="380" y="670" width="120" height="80" as="geometry" />
        </mxCell>
        <mxCell id="hYg4Aowo7lxBclZWRyUc-9" value="Предоставление профессиональной консультации" style="ellipse;whiteSpace=wrap;html=1;" vertex="1" parent="1">
          <mxGeometry x="240" y="700" width="120" height="80" as="geometry" />
        </mxCell>
        <mxCell id="hYg4Aowo7lxBclZWRyUc-14" value="include" style="edgeLabel;html=1;align=center;verticalAlign=middle;resizable=0;points=[];rotation=0;" vertex="1" connectable="0" parent="1">
          <mxGeometry x="370" y="779.9982608695652" as="geometry" />
        </mxCell>
        <mxCell id="hYg4Aowo7lxBclZWRyUc-15" value="include" style="edgeLabel;html=1;align=center;verticalAlign=middle;resizable=0;points=[];rotation=0;" vertex="1" connectable="0" parent="1">
          <mxGeometry x="414" y="769.9982608695652" as="geometry" />
        </mxCell>
        <mxCell id="hYg4Aowo7lxBclZWRyUc-16" value="Изготовление уникальных ювелирных изделий" style="ellipse;whiteSpace=wrap;html=1;" vertex="1" parent="1">
          <mxGeometry x="674" y="1230" width="120" height="80" as="geometry" />
        </mxCell>
        <mxCell id="hYg4Aowo7lxBclZWRyUc-17" value="Ручное или машинное изготовление ювелирного изделия" style="ellipse;whiteSpace=wrap;html=1;" vertex="1" parent="1">
          <mxGeometry x="827" y="1320" width="140" height="90" as="geometry" />
        </mxCell>
        <mxCell id="hYg4Aowo7lxBclZWRyUc-18" value="Выбор и подготовка необходимых материалов" style="ellipse;whiteSpace=wrap;html=1;" vertex="1" parent="1">
          <mxGeometry x="674" y="1360" width="120" height="80" as="geometry" />
        </mxCell>
        <mxCell id="hYg4Aowo7lxBclZWRyUc-19" value="Разработка эскизов и создание 3D моделей" style="ellipse;whiteSpace=wrap;html=1;" vertex="1" parent="1">
          <mxGeometry x="548" y="1330" width="120" height="80" as="geometry" />
        </mxCell>
        <mxCell id="hYg4Aowo7lxBclZWRyUc-20" value="include" style="edgeLabel;html=1;align=center;verticalAlign=middle;resizable=0;points=[];rotation=0;" vertex="1" connectable="0" parent="1">
          <mxGeometry x="820" y="1309.9982608695652" as="geometry" />
        </mxCell>
        <mxCell id="hYg4Aowo7lxBclZWRyUc-21" value="include" style="edgeLabel;html=1;align=center;verticalAlign=middle;resizable=0;points=[];rotation=0;" vertex="1" connectable="0" parent="1">
          <mxGeometry x="650" y="1299.9982608695652" as="geometry" />
        </mxCell>
        <mxCell id="hYg4Aowo7lxBclZWRyUc-22" value="include" style="edgeLabel;html=1;align=center;verticalAlign=middle;resizable=0;points=[];rotation=0;" vertex="1" connectable="0" parent="1">
          <mxGeometry x="754" y="1339.9982608695652" as="geometry" />
        </mxCell>
        <mxCell id="hYg4Aowo7lxBclZWRyUc-23" value="Классификация и оформление изделий" style="ellipse;whiteSpace=wrap;html=1;" vertex="1" parent="1">
          <mxGeometry x="634" y="930" width="120" height="80" as="geometry" />
        </mxCell>
        <mxCell id="hYg4Aowo7lxBclZWRyUc-24" value="Установление веса и точной стоимости" style="ellipse;whiteSpace=wrap;html=1;" vertex="1" parent="1">
          <mxGeometry x="830" y="930" width="140" height="90" as="geometry" />
        </mxCell>
        <mxCell id="hYg4Aowo7lxBclZWRyUc-25" value="Определение основного материала" style="ellipse;whiteSpace=wrap;html=1;" vertex="1" parent="1">
          <mxGeometry x="760" y="790" width="120" height="80" as="geometry" />
        </mxCell>
        <mxCell id="hYg4Aowo7lxBclZWRyUc-26" value="Категоризация изделий" style="ellipse;whiteSpace=wrap;html=1;" vertex="1" parent="1">
          <mxGeometry x="640" y="760" width="120" height="80" as="geometry" />
        </mxCell>
        <mxCell id="hYg4Aowo7lxBclZWRyUc-27" value="include" style="edgeLabel;html=1;align=center;verticalAlign=middle;resizable=0;points=[];rotation=0;" vertex="1" connectable="0" parent="1">
          <mxGeometry x="800" y="959.9982608695652" as="geometry" />
        </mxCell>
        <mxCell id="hYg4Aowo7lxBclZWRyUc-28" value="include" style="edgeLabel;html=1;align=center;verticalAlign=middle;resizable=0;points=[];rotation=0;" vertex="1" connectable="0" parent="1">
          <mxGeometry x="694" y="889.9982608695652" as="geometry" />
        </mxCell>
        <mxCell id="hYg4Aowo7lxBclZWRyUc-29" value="include" style="edgeLabel;html=1;align=center;verticalAlign=middle;resizable=0;points=[];rotation=0;" vertex="1" connectable="0" parent="1">
          <mxGeometry x="770" y="889.9982608695652" as="geometry" />
        </mxCell>
        <mxCell id="hYg4Aowo7lxBclZWRyUc-30" value="Контроль качества и финальная отделка" style="ellipse;whiteSpace=wrap;html=1;" vertex="1" parent="1">
          <mxGeometry x="144" y="1250" width="120" height="80" as="geometry" />
        </mxCell>
        <mxCell id="hYg4Aowo7lxBclZWRyUc-32" value="Осуществление финальной отделки" style="ellipse;whiteSpace=wrap;html=1;" vertex="1" parent="1">
          <mxGeometry x="30" y="1150" width="120" height="80" as="geometry" />
        </mxCell>
        <mxCell id="hYg4Aowo7lxBclZWRyUc-33" value="Проеведение контроля качества" style="ellipse;whiteSpace=wrap;html=1;" vertex="1" parent="1">
          <mxGeometry x="-10" y="1325" width="120" height="80" as="geometry" />
        </mxCell>
        <mxCell id="hYg4Aowo7lxBclZWRyUc-35" value="include" style="edgeLabel;html=1;align=center;verticalAlign=middle;resizable=0;points=[];rotation=0;" vertex="1" connectable="0" parent="1">
          <mxGeometry x="110" y="1319.9982608695652" as="geometry">
            <mxPoint x="5" y="-5" as="offset" />
          </mxGeometry>
        </mxCell>
        <mxCell id="hYg4Aowo7lxBclZWRyUc-36" value="extend" style="edgeLabel;html=1;align=center;verticalAlign=middle;resizable=0;points=[];rotation=0;" vertex="1" connectable="0" parent="1">
          <mxGeometry x="70" y="1269.9982608695652" as="geometry" />
        </mxCell>
        <mxCell id="hYg4Aowo7lxBclZWRyUc-38" value="" style="endArrow=classic;html=1;rounded=0;entryX=0;entryY=0.5;entryDx=0;entryDy=0;exitX=0.5;exitY=1;exitDx=0;exitDy=0;dashed=1;" edge="1" parent="1" source="hYg4Aowo7lxBclZWRyUc-32" target="hYg4Aowo7lxBclZWRyUc-30">
          <mxGeometry width="50" height="50" relative="1" as="geometry">
            <mxPoint x="146" y="1270" as="sourcePoint" />
            <mxPoint x="96.42640687119274" y="1241.7157287525379" as="targetPoint" />
          </mxGeometry>
        </mxCell>
        <mxCell id="hYg4Aowo7lxBclZWRyUc-39" value="" style="endArrow=classic;html=1;rounded=0;exitX=0;exitY=1;exitDx=0;exitDy=0;entryX=1;entryY=0.5;entryDx=0;entryDy=0;dashed=1;" edge="1" parent="1" source="hYg4Aowo7lxBclZWRyUc-30" target="hYg4Aowo7lxBclZWRyUc-33">
          <mxGeometry width="50" height="50" relative="1" as="geometry">
            <mxPoint x="46" y="1080" as="sourcePoint" />
            <mxPoint x="96" y="1030" as="targetPoint" />
            <Array as="points" />
          </mxGeometry>
        </mxCell>
        <mxCell id="hYg4Aowo7lxBclZWRyUc-40" value="Если необходима финальная отделка" style="shape=note2;boundedLbl=1;whiteSpace=wrap;html=1;size=25;verticalAlign=top;align=center;" vertex="1" parent="1">
          <mxGeometry x="-100" y="1220" width="120" height="60" as="geometry" />
        </mxCell>
        <mxCell id="hYg4Aowo7lxBclZWRyUc-41" value="" style="endArrow=none;dashed=1;html=1;rounded=0;exitX=0;exitY=0;exitDx=120;exitDy=42.5;exitPerimeter=0;" edge="1" parent="1" source="hYg4Aowo7lxBclZWRyUc-40">
          <mxGeometry width="50" height="50" relative="1" as="geometry">
            <mxPoint x="141" y="1270" as="sourcePoint" />
            <mxPoint x="100" y="1250" as="targetPoint" />
          </mxGeometry>
        </mxCell>
        <mxCell id="hYg4Aowo7lxBclZWRyUc-43" value="" style="endArrow=classic;html=1;rounded=0;exitX=0.5;exitY=1;exitDx=0;exitDy=0;entryX=0.5;entryY=0;entryDx=0;entryDy=0;dashed=1;" edge="1" parent="1" source="hYg4Aowo7lxBclZWRyUc-16" target="hYg4Aowo7lxBclZWRyUc-18">
          <mxGeometry width="50" height="50" relative="1" as="geometry">
            <mxPoint x="74" y="1310" as="sourcePoint" />
            <mxPoint x="474" y="1120" as="targetPoint" />
          </mxGeometry>
        </mxCell>
        <mxCell id="hYg4Aowo7lxBclZWRyUc-44" value="" style="endArrow=classic;html=1;rounded=0;exitX=1;exitY=1;exitDx=0;exitDy=0;entryX=0;entryY=0;entryDx=0;entryDy=0;dashed=1;" edge="1" parent="1" source="hYg4Aowo7lxBclZWRyUc-16" target="hYg4Aowo7lxBclZWRyUc-17">
          <mxGeometry width="50" height="50" relative="1" as="geometry">
            <mxPoint x="744" y="1240" as="sourcePoint" />
            <mxPoint x="744" y="1200" as="targetPoint" />
          </mxGeometry>
        </mxCell>
        <mxCell id="hYg4Aowo7lxBclZWRyUc-45" value="" style="endArrow=classic;html=1;rounded=0;exitX=0;exitY=1;exitDx=0;exitDy=0;entryX=0.5;entryY=0;entryDx=0;entryDy=0;dashed=1;" edge="1" parent="1" source="hYg4Aowo7lxBclZWRyUc-16" target="hYg4Aowo7lxBclZWRyUc-19">
          <mxGeometry width="50" height="50" relative="1" as="geometry">
            <mxPoint x="734" y="1230" as="sourcePoint" />
            <mxPoint x="654" y="1370" as="targetPoint" />
          </mxGeometry>
        </mxCell>
        <mxCell id="hYg4Aowo7lxBclZWRyUc-46" value="" style="endArrow=classic;html=1;rounded=0;entryX=0.5;entryY=1;entryDx=0;entryDy=0;exitX=1;exitY=0;exitDx=0;exitDy=0;dashed=1;" edge="1" parent="1" source="hYg4Aowo7lxBclZWRyUc-23" target="hYg4Aowo7lxBclZWRyUc-25">
          <mxGeometry width="50" height="50" relative="1" as="geometry">
            <mxPoint x="694" y="930" as="sourcePoint" />
            <mxPoint x="730" y="670" as="targetPoint" />
          </mxGeometry>
        </mxCell>
        <mxCell id="hYg4Aowo7lxBclZWRyUc-47" value="" style="endArrow=classic;html=1;rounded=0;exitX=1;exitY=0;exitDx=0;exitDy=0;entryX=0;entryY=1;entryDx=0;entryDy=0;dashed=1;" edge="1" parent="1" source="hYg4Aowo7lxBclZWRyUc-23" target="hYg4Aowo7lxBclZWRyUc-24">
          <mxGeometry width="50" height="50" relative="1" as="geometry">
            <mxPoint x="704" y="940" as="sourcePoint" />
            <mxPoint x="704" y="900" as="targetPoint" />
          </mxGeometry>
        </mxCell>
        <mxCell id="hYg4Aowo7lxBclZWRyUc-48" value="" style="endArrow=classic;html=1;rounded=0;exitX=1;exitY=0;exitDx=0;exitDy=0;entryX=0.5;entryY=1;entryDx=0;entryDy=0;dashed=1;" edge="1" parent="1" source="hYg4Aowo7lxBclZWRyUc-23" target="hYg4Aowo7lxBclZWRyUc-26">
          <mxGeometry width="50" height="50" relative="1" as="geometry">
            <mxPoint x="704" y="940" as="sourcePoint" />
            <mxPoint x="811" y="927" as="targetPoint" />
          </mxGeometry>
        </mxCell>
        <mxCell id="hYg4Aowo7lxBclZWRyUc-50" value="Получение ювелирного изделия" style="ellipse;whiteSpace=wrap;html=1;" vertex="1" parent="1">
          <mxGeometry x="30" y="980" width="120" height="80" as="geometry" />
        </mxCell>
        <mxCell id="hYg4Aowo7lxBclZWRyUc-51" value="Выдача ювелирного изделия" style="ellipse;whiteSpace=wrap;html=1;" vertex="1" parent="1">
          <mxGeometry x="150" y="1120" width="120" height="80" as="geometry" />
        </mxCell>
        <mxCell id="hYg4Aowo7lxBclZWRyUc-52" value="include" style="edgeLabel;html=1;align=center;verticalAlign=middle;resizable=0;points=[];rotation=0;" vertex="1" connectable="0" parent="1">
          <mxGeometry x="584.57" y="887.9982608695652" as="geometry" />
        </mxCell>
        <mxCell id="hYg4Aowo7lxBclZWRyUc-53" value="" style="endArrow=classic;html=1;rounded=0;exitX=1;exitY=1;exitDx=0;exitDy=0;entryX=0.092;entryY=0.183;entryDx=0;entryDy=0;entryPerimeter=0;dashed=1;" edge="1" parent="1" source="hYg4Aowo7lxBclZWRyUc-5">
          <mxGeometry width="50" height="50" relative="1" as="geometry">
            <mxPoint x="487.99640687119273" y="858.2842712474619" as="sourcePoint" />
            <mxPoint x="650.61" y="944.6400000000001" as="targetPoint" />
          </mxGeometry>
        </mxCell>
        <mxCell id="hYg4Aowo7lxBclZWRyUc-55" value="" style="endArrow=classic;html=1;rounded=0;exitX=0.5;exitY=1;exitDx=0;exitDy=0;entryX=0.5;entryY=0;entryDx=0;entryDy=0;dashed=1;" edge="1" parent="1" source="hYg4Aowo7lxBclZWRyUc-23" target="hYg4Aowo7lxBclZWRyUc-16">
          <mxGeometry width="50" height="50" relative="1" as="geometry">
            <mxPoint x="746" y="952" as="sourcePoint" />
            <mxPoint x="861" y="1017" as="targetPoint" />
          </mxGeometry>
        </mxCell>
        <mxCell id="hYg4Aowo7lxBclZWRyUc-56" value="include" style="edgeLabel;html=1;align=center;verticalAlign=middle;resizable=0;points=[];rotation=0;" vertex="1" connectable="0" parent="1">
          <mxGeometry x="724" y="1059.9982608695652" as="geometry" />
        </mxCell>
        <mxCell id="hYg4Aowo7lxBclZWRyUc-57" value="" style="endArrow=classic;html=1;rounded=0;exitX=0;exitY=0.5;exitDx=0;exitDy=0;entryX=1;entryY=0.5;entryDx=0;entryDy=0;dashed=1;" edge="1" parent="1" source="hYg4Aowo7lxBclZWRyUc-16" target="hYg4Aowo7lxBclZWRyUc-30">
          <mxGeometry width="50" height="50" relative="1" as="geometry">
            <mxPoint x="702" y="1308" as="sourcePoint" />
            <mxPoint x="618" y="1340" as="targetPoint" />
          </mxGeometry>
        </mxCell>
        <mxCell id="hYg4Aowo7lxBclZWRyUc-58" value="include" style="edgeLabel;html=1;align=center;verticalAlign=middle;resizable=0;points=[];rotation=0;" vertex="1" connectable="0" parent="1">
          <mxGeometry x="548" y="1259.9982608695652" as="geometry" />
        </mxCell>
        <mxCell id="hYg4Aowo7lxBclZWRyUc-59" style="edgeStyle=orthogonalEdgeStyle;rounded=0;orthogonalLoop=1;jettySize=auto;html=1;exitX=0.5;exitY=1;exitDx=0;exitDy=0;" edge="1" parent="1" source="hYg4Aowo7lxBclZWRyUc-32" target="hYg4Aowo7lxBclZWRyUc-32">
          <mxGeometry relative="1" as="geometry" />
        </mxCell>
        <mxCell id="hYg4Aowo7lxBclZWRyUc-60" value="" style="endArrow=classic;html=1;rounded=0;exitX=0.5;exitY=0;exitDx=0;exitDy=0;entryX=0.5;entryY=1;entryDx=0;entryDy=0;dashed=1;" edge="1" parent="1" source="hYg4Aowo7lxBclZWRyUc-30" target="hYg4Aowo7lxBclZWRyUc-51">
          <mxGeometry width="50" height="50" relative="1" as="geometry">
            <mxPoint x="684" y="1280" as="sourcePoint" />
            <mxPoint x="274" y="1300" as="targetPoint" />
          </mxGeometry>
        </mxCell>
        <mxCell id="hYg4Aowo7lxBclZWRyUc-61" value="include" style="edgeLabel;html=1;align=center;verticalAlign=middle;resizable=0;points=[];rotation=0;" vertex="1" connectable="0" parent="1">
          <mxGeometry x="230" y="1229.9982608695652" as="geometry" />
        </mxCell>
        <mxCell id="hYg4Aowo7lxBclZWRyUc-63" value="" style="endArrow=classic;html=1;rounded=0;exitX=0.5;exitY=0;exitDx=0;exitDy=0;entryX=1;entryY=1;entryDx=0;entryDy=0;dashed=1;" edge="1" parent="1" source="hYg4Aowo7lxBclZWRyUc-51" target="hYg4Aowo7lxBclZWRyUc-50">
          <mxGeometry width="50" height="50" relative="1" as="geometry">
            <mxPoint x="214" y="1260" as="sourcePoint" />
            <mxPoint x="220" y="1210" as="targetPoint" />
          </mxGeometry>
        </mxCell>
        <mxCell id="hYg4Aowo7lxBclZWRyUc-64" value="include" style="edgeLabel;html=1;align=center;verticalAlign=middle;resizable=0;points=[];rotation=0;" vertex="1" connectable="0" parent="1">
          <mxGeometry x="204" y="1089.9982608695652" as="geometry" />
        </mxCell>
        <mxCell id="hYg4Aowo7lxBclZWRyUc-66" value="" style="endArrow=none;html=1;rounded=0;entryX=0;entryY=1;entryDx=0;entryDy=0;entryPerimeter=0;exitX=1;exitY=0;exitDx=0;exitDy=0;" edge="1" parent="1" source="hYg4Aowo7lxBclZWRyUc-51" target="hYg4Aowo7lxBclZWRyUc-2">
          <mxGeometry width="50" height="50" relative="1" as="geometry">
            <mxPoint x="260" y="1120" as="sourcePoint" />
            <mxPoint x="310" y="1070" as="targetPoint" />
          </mxGeometry>
        </mxCell>
        <mxCell id="hYg4Aowo7lxBclZWRyUc-67" value="" style="endArrow=none;html=1;rounded=0;entryX=1;entryY=0.3333333333333333;entryDx=0;entryDy=0;entryPerimeter=0;exitX=0.5;exitY=1;exitDx=0;exitDy=0;" edge="1" parent="1" source="hYg4Aowo7lxBclZWRyUc-5" target="hYg4Aowo7lxBclZWRyUc-2">
          <mxGeometry width="50" height="50" relative="1" as="geometry">
            <mxPoint x="262" y="1142" as="sourcePoint" />
            <mxPoint x="320" y="1040" as="targetPoint" />
          </mxGeometry>
        </mxCell>
        <mxCell id="hYg4Aowo7lxBclZWRyUc-68" value="" style="endArrow=none;html=1;rounded=0;entryX=1;entryY=0.3333333333333333;entryDx=0;entryDy=0;entryPerimeter=0;exitX=0;exitY=0.5;exitDx=0;exitDy=0;" edge="1" parent="1" source="hYg4Aowo7lxBclZWRyUc-23" target="hYg4Aowo7lxBclZWRyUc-2">
          <mxGeometry width="50" height="50" relative="1" as="geometry">
            <mxPoint x="450" y="880" as="sourcePoint" />
            <mxPoint x="350" y="1000" as="targetPoint" />
          </mxGeometry>
        </mxCell>
        <mxCell id="hYg4Aowo7lxBclZWRyUc-69" value="" style="endArrow=none;html=1;rounded=0;entryX=1;entryY=0.3333333333333333;entryDx=0;entryDy=0;entryPerimeter=0;exitX=0;exitY=0;exitDx=0;exitDy=0;" edge="1" parent="1" source="hYg4Aowo7lxBclZWRyUc-16" target="hYg4Aowo7lxBclZWRyUc-2">
          <mxGeometry width="50" height="50" relative="1" as="geometry">
            <mxPoint x="644" y="980" as="sourcePoint" />
            <mxPoint x="350" y="1000" as="targetPoint" />
          </mxGeometry>
        </mxCell>
      </root>
    </mxGraphModel>
  </diagram>
</mxfile>
